# xmcd
#
# Track frame offsets: 
#        150
#        13984
#        36900
#        60163
#        79105
#        93391
#        116321
#        135444
#        156452
#        178360
#        203639
#        222289
#        241796
#        263357
#        279970
#        297907
#        324626
#
# Disc length: 4695 seconds
#
# Revision: 0
# Processed by: cddbd v1.5.2PL0 Copyright (c) Steve Scherf et al.
# Submitted via: ExactAudioCopy v0.99pb4
#
DISCID=e9125511
DTITLE=Григорий Лепс - Григорий Лепс ( Лучшее
DYEAR=2008
DGENRE=Blues
TTITLE0=Я тебе не верю
TTITLE1=Баллада о борьбе
TTITLE2=Замерзает солнце
TTITLE3=Бессонница
TTITLE4=Парус
TTITLE5=Лабиринт
TTITLE6=Она
TTITLE7=Вьюга
TTITLE8=Певец у микрофона
TTITLE9=Ну и что
TTITLE10=Крыса
TTITLE11=Рюмка водки на столе
TTITLE12=Натали
TTITLE13=Я верю, я дождусь
TTITLE14=Шелест
TTITLE15=Моя цыганская
TTITLE16=На струнах дождя
EXTD=
EXTT0=
EXTT1=
EXTT2=
EXTT3=
EXTT4=
EXTT5=
EXTT6=
EXTT7=
EXTT8=
EXTT9=
EXTT10=
EXTT11=
EXTT12=
EXTT13=
EXTT14=
EXTT15=
EXTT16=
PLAYORDER=
